<?xml version="1.0" encoding="iso-8859-1"?>
<!DOCTYPE svg PUBLIC "-//W3C//DTD SVG 1.1 Basic//EN" "http://www.w3.org/Graphics/SVG/1.1/DTD/svg11-basic.dtd">
<svg version="1.1" baseProfile="basic"
   xmlns="http://www.w3.org/2000/svg" xmlns:xlink="http://www.w3.org/1999/xlink" x="0px" y="0px" width="128px" height="128px"
   viewBox="0 0 128 128" xml:space="preserve">
  <path transform="matrix(0.128,0,0,0.128,0,0)" stroke="none" style="fill:#0866CC" d="M 499 0 C 224 0 0 224 0 500 C 0 521 1 541 4 562 L 475 562 L 475 999 C 483 999 491 1000 499 1000 C 775 1000 1000 775 1000 500 C 1000 224 775 0 499 0 z M 218 464 C 171 464 132 425 132 378 C 132 330 171 291 218 291 C 266 291 305 330 305 378 C 305 425 266 464 218 464 z M 463 324 C 403 324 353 275 353 214 C 353 153 403 104 463 104 C 524 104 574 153 574 214 C 574 275 524 324 463 324 z M 699 822 C 643 822 597 777 597 721 C 597 665 643 619 699 619 C 755 619 800 665 800 721 C 800 777 755 822 699 822 z M 763 520 C 695 520 640 465 640 397 C 640 330 695 275 763 275 C 831 275 885 330 885 397 C 885 465 831 520 763 520 z"/>
</svg>