<?xml version="1.0" encoding="iso-8859-1"?>
<!DOCTYPE svg PUBLIC "-//W3C//DTD SVG 1.1 Basic//EN" "http://www.w3.org/Graphics/SVG/1.1/DTD/svg11-basic.dtd">
<svg version="1.1" baseProfile="basic"
   xmlns="http://www.w3.org/2000/svg" xmlns:xlink="http://www.w3.org/1999/xlink" x="0px" y="0px" width="512px" height="512px"
   viewBox="0 0 512 512" xml:space="preserve">
  <path transform="matrix(0.512,0,0,0.512,0,0)" stroke="none" style="fill:#0866CC" d="M 0 0 L 0 1000 L 1000 1000 L 1000 0 L 0 0 z M 282 848 C 238 848 202 812 202 768 C 202 724 238 688 282 688 C 326 688 362 724 362 768 C 362 812 326 848 282 848 z M 282 311 C 238 311 202 275 202 231 C 202 187 238 151 282 151 C 326 151 362 187 362 231 C 362 275 326 311 282 311 z M 499 579 C 455 579 420 544 420 500 C 420 455 455 420 499 420 C 544 420 579 455 579 500 C 579 544 544 579 499 579 z M 717 848 C 673 848 637 812 637 768 C 637 724 673 688 717 688 C 761 688 797 724 797 768 C 797 812 761 848 717 848 z M 717 311 C 673 311 637 275 637 231 C 637 187 673 151 717 151 C 761 151 797 187 797 231 C 797 275 761 311 717 311 z"/>
</svg>