<?xml version="1.0" encoding="iso-8859-1"?>
<!DOCTYPE svg PUBLIC "-//W3C//DTD SVG 1.1 Basic//EN" "http://www.w3.org/Graphics/SVG/1.1/DTD/svg11-basic.dtd">
<svg version="1.1" baseProfile="basic"
   xmlns="http://www.w3.org/2000/svg" xmlns:xlink="http://www.w3.org/1999/xlink" x="0px" y="0px" width="512px" height="512px"
   viewBox="0 0 512 512" xml:space="preserve">
  <path transform="matrix(0.512,0,0,0.512,0,0)" stroke="none" style="fill:#0866CC" d="M 0 0 L 0 1000 L 1000 1000 L 1000 0 L 0 0 z M 282 870 C 238 870 202 835 202 791 C 202 746 238 711 282 711 C 326 711 362 746 362 791 C 362 835 326 870 282 870 z M 282 579 C 238 579 202 544 202 499 C 202 455 238 420 282 420 C 326 420 362 455 362 499 C 362 544 326 579 282 579 z M 282 288 C 238 288 202 253 202 209 C 202 164 238 129 282 129 C 326 129 362 164 362 209 C 362 253 326 288 282 288 z M 717 870 C 673 870 637 835 637 791 C 637 746 673 711 717 711 C 761 711 797 746 797 791 C 797 835 761 870 717 870 z M 717 579 C 673 579 637 544 637 499 C 637 455 673 420 717 420 C 761 420 797 455 797 499 C 797 544 761 579 717 579 z M 717 288 C 673 288 637 253 637 209 C 637 164 673 129 717 129 C 761 129 797 164 797 209 C 797 253 761 288 717 288 z"/>
</svg>